<svg width="100" height="41" viewBox="0 0 100 41" fill="none" xmlns="http://www.w3.org/2000/svg">
<path fill-rule="evenodd" clip-rule="evenodd" d="M39.447 35.643H43.1783L45.2038 30.5258H55.6514L57.6769 35.643H61.4081L52.6663 14.4281H48.0822L39.447 35.643ZM46.3765 27.4342L50.4276 17.1999L54.4787 27.4342H46.3765ZM71.1094 17.3065C73.7746 17.3065 75.3737 18.6924 76.0134 21.1444L79.2116 19.332C78.0389 16.0272 75.0539 14.2149 71.4292 14.2149C66.9517 14.2149 63.9667 16.8801 63.9667 19.9717C63.9667 23.703 66.6319 25.6219 71.5358 26.4747C75.1605 27.1144 76.5464 28.0738 76.5464 29.7796C76.5464 31.5919 74.6275 32.7646 71.7491 32.7646C68.4442 32.7646 66.2055 30.8456 65.4592 27.4342L62.261 29.4597C63.0072 31.8051 64.2865 33.5108 65.9922 34.5769C67.8046 35.5363 69.6169 36.0694 71.6425 36.0694C76.5464 36.0694 79.9578 33.2976 79.9578 29.673C79.9578 26.2615 77.5059 24.3426 72.6019 23.4897C69.2971 22.8501 67.1649 21.8906 67.1649 19.9717C67.2715 18.3726 68.7641 17.3065 71.1094 17.3065ZM99.8934 14.4281H81.1305V17.6263H88.9128V35.643H92.2177V17.6263H100V14.4281H99.8934Z" fill="#1E355C"/>
<path d="M11.5985 0.703441L10.2151 1.50555L15.5625 10.7282L16.9459 9.92606L11.5985 0.703441Z" fill="#1E355C"/>
<path fill-rule="evenodd" clip-rule="evenodd" d="M7.46495 25.3019C11.6226 25.3019 14.9275 21.8905 14.9275 17.8394C14.9275 13.6817 11.516 10.3769 7.46495 10.3769C3.41387 10.3769 0.00243262 13.7883 0.00243262 17.8394C-0.104175 21.9971 3.30726 25.3019 7.46495 25.3019Z" fill="#3D6791"/>
<path fill-rule="evenodd" clip-rule="evenodd" d="M24.2023 25.3019C28.3599 25.3019 31.6648 21.8905 31.6648 17.8394C31.6648 13.6817 28.2533 10.3769 24.2023 10.3769C20.0446 10.3769 16.7397 13.7883 16.7397 17.8394C16.7397 21.9971 20.1512 25.3019 24.2023 25.3019Z" fill="#CE998D"/>
<path fill-rule="evenodd" clip-rule="evenodd" d="M15.8868 40.0138C20.0445 40.0138 23.3493 36.6024 23.3493 32.5513C23.3493 28.5002 19.9378 25.0888 15.8868 25.0888C11.8357 25.0888 8.42426 28.5002 8.42426 32.5513C8.42426 36.6024 11.7291 40.0138 15.8868 40.0138Z" fill="#A04476"/>
</svg>
